{
	"patcher" : 	{
		"fileversion" : 1,
		"appversion" : 		{
			"major" : 7,
			"minor" : 3,
			"revision" : 1,
			"architecture" : "x64",
			"modernui" : 1
		}
,
		"rect" : [ 613.0, 483.0, 832.0, 491.0 ],
		"bglocked" : 0,
		"openinpresentation" : 0,
		"default_fontsize" : 10.0,
		"default_fontface" : 1,
		"default_fontname" : "Arial",
		"gridonopen" : 1,
		"gridsize" : [ 15.0, 15.0 ],
		"gridsnaponopen" : 1,
		"objectsnaponopen" : 1,
		"statusbarvisible" : 2,
		"toolbarvisible" : 1,
		"lefttoolbarpinned" : 0,
		"toptoolbarpinned" : 0,
		"righttoolbarpinned" : 0,
		"bottomtoolbarpinned" : 0,
		"toolbars_unpinned_last_save" : 0,
		"tallnewobj" : 0,
		"boxanimatetime" : 200,
		"enablehscroll" : 1,
		"enablevscroll" : 1,
		"devicewidth" : 0.0,
		"description" : "",
		"digest" : "",
		"tags" : "",
		"style" : "",
		"subpatcher_template" : "",
		"boxes" : [ 			{
				"box" : 				{
					"id" : "obj-48",
					"maxclass" : "comment",
					"numinlets" : 1,
					"numoutlets" : 0,
					"patching_rect" : [ 125.0, 281.0, 31.0, 18.0 ],
					"style" : "",
					"text" : "Amt"
				}

			}
, 			{
				"box" : 				{
					"id" : "obj-46",
					"maxclass" : "comment",
					"numinlets" : 1,
					"numoutlets" : 0,
					"patching_rect" : [ 363.0, 125.5, 32.0, 18.0 ],
					"style" : "",
					"text" : "Trig"
				}

			}
, 			{
				"box" : 				{
					"automation" : "Map",
					"automationon" : "Map",
					"id" : "obj-44",
					"maxclass" : "live.text",
					"mode" : 0,
					"numinlets" : 1,
					"numoutlets" : 2,
					"outlettype" : [ "", "" ],
					"parameter_enable" : 1,
					"patching_rect" : [ 363.0, 101.0, 42.0, 15.0 ],
					"saved_attribute_attributes" : 					{
						"valueof" : 						{
							"parameter_longname" : "live.text",
							"parameter_shortname" : "live.text",
							"parameter_type" : 2,
							"parameter_mmax" : 1.0,
							"parameter_enum" : [ "Map", "Map" ]
						}

					}
,
					"text" : "Map",
					"texton" : "Map",
					"varname" : "live.text"
				}

			}
, 			{
				"box" : 				{
					"id" : "obj-43",
					"maxclass" : "comment",
					"numinlets" : 1,
					"numoutlets" : 0,
					"patching_rect" : [ 158.0, 81.0, 29.0, 18.0 ],
					"presentation_rect" : [ 156.5, 80.0, 0.0, 0.0 ],
					"style" : "",
					"text" : "Max"
				}

			}
, 			{
				"box" : 				{
					"id" : "obj-42",
					"maxclass" : "comment",
					"numinlets" : 1,
					"numoutlets" : 0,
					"patching_rect" : [ 216.5, 81.0, 29.0, 18.0 ],
					"style" : "",
					"text" : "Min"
				}

			}
, 			{
				"box" : 				{
					"id" : "obj-39",
					"maxclass" : "newobj",
					"numinlets" : 1,
					"numoutlets" : 2,
					"outlettype" : [ "bang", "int" ],
					"patching_rect" : [ 158.0, 132.0, 48.0, 22.0 ],
					"style" : "",
					"text" : "t b i"
				}

			}
, 			{
				"box" : 				{
					"id" : "obj-38",
					"maxclass" : "newobj",
					"numinlets" : 1,
					"numoutlets" : 4,
					"outlettype" : [ "bang", "bang", "int", "int" ],
					"patching_rect" : [ 216.5, 132.0, 102.5, 22.0 ],
					"style" : "",
					"text" : "t b b i i"
				}

			}
, 			{
				"box" : 				{
					"id" : "obj-21",
					"maxclass" : "message",
					"numinlets" : 2,
					"numoutlets" : 1,
					"outlettype" : [ "" ],
					"patching_rect" : [ 187.0, 231.0, 49.0, 22.0 ],
					"style" : "",
					"text" : "size $1"
				}

			}
, 			{
				"box" : 				{
					"id" : "obj-18",
					"maxclass" : "message",
					"numinlets" : 2,
					"numoutlets" : 1,
					"outlettype" : [ "" ],
					"patching_rect" : [ 300.0, 231.0, 47.0, 22.0 ],
					"style" : "",
					"text" : "min $1"
				}

			}
, 			{
				"box" : 				{
					"id" : "obj-16",
					"maxclass" : "newobj",
					"numinlets" : 2,
					"numoutlets" : 1,
					"outlettype" : [ "int" ],
					"patching_rect" : [ 187.0, 196.0, 104.166664, 22.0 ],
					"style" : "",
					"text" : "-"
				}

			}
, 			{
				"box" : 				{
					"bgcolor" : [ 0.094118, 0.113725, 0.137255, 1.0 ],
					"id" : "obj-9",
					"knobcolor" : [ 1.0, 0.603922, 0.0, 1.0 ],
					"knobshape" : 5,
					"maxclass" : "slider",
					"numinlets" : 1,
					"numoutlets" : 1,
					"outlettype" : [ "" ],
					"parameter_enable" : 0,
					"patching_rect" : [ 158.0, 281.0, 96.0, 16.0 ],
					"prototypename" : "M4L.horizontal-orange",
					"size" : 127.0,
					"style" : ""
				}

			}
, 			{
				"box" : 				{
					"id" : "obj-8",
					"maxclass" : "live.button",
					"numinlets" : 1,
					"numoutlets" : 1,
					"outlettype" : [ "" ],
					"parameter_enable" : 1,
					"patching_rect" : [ 401.0, 127.0, 15.0, 15.0 ],
					"saved_attribute_attributes" : 					{
						"valueof" : 						{
							"parameter_longname" : "live.button",
							"parameter_shortname" : "live.button",
							"parameter_type" : 2,
							"parameter_mmax" : 1.0,
							"parameter_enum" : [ "off", "on" ]
						}

					}
,
					"varname" : "live.button"
				}

			}
, 			{
				"box" : 				{
					"id" : "obj-6",
					"maxclass" : "live.numbox",
					"numinlets" : 1,
					"numoutlets" : 2,
					"outlettype" : [ "", "float" ],
					"parameter_enable" : 1,
					"patching_rect" : [ 158.0, 101.0, 36.0, 15.0 ],
					"saved_attribute_attributes" : 					{
						"valueof" : 						{
							"parameter_longname" : "live.numbox[1]",
							"parameter_shortname" : "live.numbox[1]",
							"parameter_type" : 1,
							"parameter_initial_enable" : 1,
							"parameter_initial" : [ 127.0 ],
							"parameter_unitstyle" : 0
						}

					}
,
					"varname" : "live.numbox[1]"
				}

			}
, 			{
				"box" : 				{
					"id" : "obj-4",
					"maxclass" : "live.numbox",
					"numinlets" : 1,
					"numoutlets" : 2,
					"outlettype" : [ "", "float" ],
					"parameter_enable" : 1,
					"patching_rect" : [ 216.5, 101.0, 36.0, 15.0 ],
					"saved_attribute_attributes" : 					{
						"valueof" : 						{
							"parameter_longname" : "live.numbox",
							"parameter_shortname" : "live.numbox",
							"parameter_type" : 1,
							"parameter_initial_enable" : 1,
							"parameter_initial" : [ 0.0 ],
							"parameter_unitstyle" : 0
						}

					}
,
					"varname" : "live.numbox"
				}

			}
 ],
		"lines" : [ 			{
				"patchline" : 				{
					"destination" : [ "obj-21", 0 ],
					"disabled" : 0,
					"hidden" : 0,
					"source" : [ "obj-16", 0 ]
				}

			}
, 			{
				"patchline" : 				{
					"destination" : [ "obj-9", 0 ],
					"disabled" : 0,
					"hidden" : 0,
					"midpoints" : [ 309.5, 267.0, 167.5, 267.0 ],
					"source" : [ "obj-18", 0 ]
				}

			}
, 			{
				"patchline" : 				{
					"destination" : [ "obj-9", 0 ],
					"disabled" : 0,
					"hidden" : 0,
					"midpoints" : [ 196.5, 267.0, 167.5, 267.0 ],
					"source" : [ "obj-21", 0 ]
				}

			}
, 			{
				"patchline" : 				{
					"destination" : [ "obj-16", 1 ],
					"disabled" : 0,
					"hidden" : 0,
					"source" : [ "obj-38", 2 ]
				}

			}
, 			{
				"patchline" : 				{
					"destination" : [ "obj-16", 0 ],
					"disabled" : 0,
					"hidden" : 0,
					"midpoints" : [ 253.833333, 185.0, 196.5, 185.0 ],
					"source" : [ "obj-38", 1 ]
				}

			}
, 			{
				"patchline" : 				{
					"destination" : [ "obj-18", 0 ],
					"disabled" : 0,
					"hidden" : 0,
					"source" : [ "obj-38", 3 ]
				}

			}
, 			{
				"patchline" : 				{
					"destination" : [ "obj-9", 0 ],
					"disabled" : 0,
					"hidden" : 0,
					"midpoints" : [ 226.0, 176.0, 167.5, 176.0 ],
					"source" : [ "obj-38", 0 ]
				}

			}
, 			{
				"patchline" : 				{
					"destination" : [ "obj-16", 0 ],
					"disabled" : 0,
					"hidden" : 0,
					"source" : [ "obj-39", 1 ]
				}

			}
, 			{
				"patchline" : 				{
					"destination" : [ "obj-9", 0 ],
					"disabled" : 0,
					"hidden" : 0,
					"source" : [ "obj-39", 0 ]
				}

			}
, 			{
				"patchline" : 				{
					"destination" : [ "obj-38", 0 ],
					"disabled" : 0,
					"hidden" : 0,
					"source" : [ "obj-4", 0 ]
				}

			}
, 			{
				"patchline" : 				{
					"destination" : [ "obj-39", 0 ],
					"disabled" : 0,
					"hidden" : 0,
					"source" : [ "obj-6", 0 ]
				}

			}
 ],
		"parameters" : 		{
			"obj-6" : [ "live.numbox[1]", "live.numbox[1]", 0 ],
			"obj-8" : [ "live.button", "live.button", 0 ],
			"obj-4" : [ "live.numbox", "live.numbox", 0 ],
			"obj-44" : [ "live.text", "live.text", 0 ]
		}
,
		"dependency_cache" : [  ],
		"autosave" : 0
	}

}
